<svg width="20" height="20" viewBox="0 0 20 20" fill="none" xmlns="http://www.w3.org/2000/svg">
<path d="M13.6526 6.89453H12.7366C12.5374 6.89453 12.3479 6.99023 12.2307 7.1543L9.16041 11.4121L7.76978 9.48242C7.6526 9.32031 7.4651 9.22266 7.26392 9.22266H6.3479C6.22095 9.22266 6.14673 9.36719 6.22095 9.4707L8.65455 12.8457C8.71204 12.9259 8.78783 12.9913 8.87563 13.0364C8.96344 13.0815 9.06073 13.1051 9.15944 13.1051C9.25815 13.1051 9.35544 13.0815 9.44324 13.0364C9.53104 12.9913 9.60683 12.9259 9.66432 12.8457L13.7776 7.14258C13.8538 7.03906 13.7796 6.89453 13.6526 6.89453Z" fill="#6F73EE"/>
<path d="M10 1.25C5.16797 1.25 1.25 5.16797 1.25 10C1.25 14.832 5.16797 18.75 10 18.75C14.832 18.75 18.75 14.832 18.75 10C18.75 5.16797 14.832 1.25 10 1.25ZM10 17.2656C5.98828 17.2656 2.73438 14.0117 2.73438 10C2.73438 5.98828 5.98828 2.73438 10 2.73438C14.0117 2.73438 17.2656 5.98828 17.2656 10C17.2656 14.0117 14.0117 17.2656 10 17.2656Z" fill="#6F73EE"/>
</svg>
