<svg width="131" height="32" viewBox="0 0 131 32" fill="none" xmlns="http://www.w3.org/2000/svg">
<path d="M108.926 26.6934H111.015V12.6996H108.926V26.6934ZM127.74 17.7405L125.346 23.8075H125.274L122.789 17.7405H120.539L124.265 26.2203L122.141 30.9371H124.32L130.063 17.7405H127.74ZM115.895 25.104C115.209 25.104 114.256 24.762 114.256 23.9155C114.256 22.8354 115.445 22.4213 116.47 22.4213C117.389 22.4213 117.82 22.6194 118.378 22.8897C118.216 24.1858 117.1 25.104 115.895 25.104ZM116.146 17.4343C114.634 17.4343 113.068 18.1007 112.42 19.5769L114.274 20.3509C114.67 19.5769 115.408 19.3246 116.182 19.3246C117.262 19.3246 118.361 19.9731 118.378 21.1253V21.2691C118 21.0531 117.191 20.7291 116.2 20.7291C114.202 20.7291 112.167 21.8271 112.167 23.8796C112.167 25.752 113.806 26.9584 115.642 26.9584C117.046 26.9584 117.82 26.3283 118.307 25.5903H118.378V26.6703H120.395V21.305C120.395 18.8209 118.541 17.4343 116.146 17.4343ZM103.237 19.444H100.267V14.6472H103.237C104.799 14.6472 105.686 15.9401 105.686 17.0455C105.686 18.13 104.799 19.444 103.237 19.444ZM103.184 12.6996H98.1788V26.6934H100.267V21.3916H103.184C105.499 21.3916 107.774 19.7155 107.774 17.0455C107.774 14.3756 105.499 12.6996 103.184 12.6996ZM75.8915 25.1066C74.4485 25.1066 73.2403 23.8984 73.2403 22.239C73.2403 20.5621 74.4485 19.3356 75.8915 19.3356C77.3162 19.3356 78.4343 20.5621 78.4343 22.239C78.4343 23.8984 77.3162 25.1066 75.8915 25.1066ZM78.29 18.524H78.2178C77.7491 17.9651 76.8469 17.4602 75.711 17.4602C73.3304 17.4602 71.1485 19.552 71.1485 22.239C71.1485 24.9081 73.3304 26.982 75.711 26.982C76.8469 26.982 77.7491 26.4769 78.2178 25.9002H78.29V26.5854C78.29 28.4071 77.3162 29.3809 75.7472 29.3809C74.4669 29.3809 73.6733 28.4609 73.3484 27.6856L71.5272 28.443C72.0502 29.7053 73.4389 31.2563 75.7472 31.2563C78.1999 31.2563 80.2738 29.8133 80.2738 26.2968V17.7487H78.29V18.524ZM81.7163 26.6934H83.8083V12.6991H81.7163V26.6934ZM86.8922 22.0768C86.8381 20.2372 88.3169 19.2997 89.3808 19.2997C90.2109 19.2997 90.9139 19.7142 91.1479 20.3098L86.8922 22.0768ZM93.3844 20.4899C92.9882 19.4256 91.7792 17.4602 89.3086 17.4602C86.856 17.4602 84.8183 19.3898 84.8183 22.2211C84.8183 24.8902 86.8381 26.982 89.543 26.982C91.7255 26.982 92.9882 25.6475 93.5109 24.8722L91.8878 23.7899C91.3471 24.5836 90.6072 25.1066 89.543 25.1066C88.4791 25.1066 87.7218 24.6195 87.2347 23.664L93.6005 21.0308L93.3844 20.4899ZM42.6663 18.921V20.9407H47.4993C47.355 22.0768 46.9763 22.9063 46.3992 23.4834C45.6961 24.187 44.5959 24.9623 42.6663 24.9623C39.6906 24.9623 37.3644 22.5638 37.3644 19.5883C37.3644 16.6127 39.6906 14.2139 42.6663 14.2139C44.2714 14.2139 45.4433 14.8452 46.3091 15.6568L47.7337 14.2322C46.5256 13.0778 44.9203 12.1941 42.6663 12.1941C38.5904 12.1941 35.1641 15.5125 35.1641 19.5883C35.1641 23.664 38.5904 26.982 42.6663 26.982C44.8666 26.982 46.5256 26.261 47.8238 24.9081C49.1584 23.5735 49.5734 21.6981 49.5734 20.1834C49.5734 19.7142 49.5374 19.2818 49.4649 18.921H42.6663ZM55.0681 25.1066C53.625 25.1066 52.3806 23.9163 52.3806 22.2211C52.3806 20.5078 53.625 19.3356 55.0681 19.3356C56.5105 19.3356 57.755 20.5078 57.755 22.2211C57.755 23.9163 56.5105 25.1066 55.0681 25.1066ZM55.0681 17.4602C52.4348 17.4602 50.2887 19.4619 50.2887 22.2211C50.2887 24.9623 52.4348 26.982 55.0681 26.982C57.7008 26.982 59.8469 24.9623 59.8469 22.2211C59.8469 19.4619 57.7008 17.4602 55.0681 17.4602ZM65.4933 25.1066C64.0508 25.1066 62.8063 23.9163 62.8063 22.2211C62.8063 20.5078 64.0508 19.3356 65.4933 19.3356C66.9359 19.3356 68.1803 20.5078 68.1803 22.2211C68.1803 23.9163 66.9359 25.1066 65.4933 25.1066ZM65.4933 17.4602C62.8601 17.4602 60.7144 19.4619 60.7144 22.2211C60.7144 24.9623 62.8601 26.982 65.4933 26.982C68.1261 26.982 70.2722 24.9623 70.2722 22.2211C70.2722 19.4619 68.1261 17.4602 65.4933 17.4602Z" fill="#282739"/>
<path d="M0.98795 29.3682L0.904778 29.2886C0.579031 28.9439 0.386719 28.4087 0.386719 27.7157V27.8788V3.12209C0.386719 3.11985 0.386719 3.11817 0.386719 3.11638C0.386719 3.1185 0.386719 3.12029 0.386719 3.12253V3.28608C0.386719 2.53563 0.610934 1.97033 0.986606 1.63138L14.8558 15.5002L0.98795 29.3682ZM0.386719 3.11503C0.386719 3.05335 0.388398 2.99347 0.391532 2.93447C0.388398 2.99302 0.386719 3.05335 0.386719 3.11503ZM0.391532 2.93179C0.391532 2.93101 0.391531 2.93011 0.391867 2.92921C0.391531 2.93011 0.391532 2.93101 0.391532 2.93179ZM0.391867 2.92395C0.391867 2.9235 0.391867 2.92306 0.391867 2.92261C0.391867 2.92306 0.391867 2.9235 0.391867 2.92395Z" fill="url(#paint0_linear_803_14060)"/>
<path d="M19.4778 20.2886L19.5833 20.2287L25.0604 17.1166C25.5826 16.8198 25.9306 16.4599 26.1042 16.0791C25.9311 16.4599 25.5829 16.8202 25.0604 17.1171L19.5833 20.2291L19.4778 20.2886ZM19.4792 20.1246L14.8555 15.5001L19.4787 10.8764L25.0604 14.0475C25.7692 14.4502 26.1672 14.9693 26.2336 15.4997C26.2336 15.5001 26.2336 15.501 26.2336 15.5018C26.1672 16.0309 25.7692 16.5504 25.0604 16.9531L19.4792 20.1246Z" fill="url(#paint1_linear_803_14060)"/>
<path d="M1.97493 29.8965C1.58751 29.8965 1.24945 29.7706 0.985827 29.5327L0.986277 29.5322C1.2499 29.7701 1.5884 29.8965 1.97583 29.8965C2.00941 29.8965 2.04355 29.8956 2.07814 29.8939C2.0431 29.8956 2.00851 29.8965 1.97493 29.8965ZM1.97538 29.7325C1.58796 29.7329 1.2499 29.6066 0.986277 29.3687V29.3683L14.8541 15.5004L19.4778 20.1249L3.22945 29.3569C2.77989 29.6118 2.35396 29.7325 1.97538 29.7325ZM0.982358 29.5297C0.957843 29.5074 0.933776 29.4838 0.910156 29.4592L0.982358 29.5297Z" fill="url(#paint2_linear_803_14060)"/>
<path d="M14.8575 15.5L0.988281 1.63116C1.2519 1.39373 1.58951 1.2678 1.97649 1.2678C2.35608 1.2678 2.78235 1.38892 3.2328 1.64426L19.4807 10.8763L14.8575 15.5ZM19.5853 10.7719L3.2328 1.48082C2.78235 1.22537 2.35608 1.10426 1.97649 1.10426C1.9747 1.10426 1.97347 1.10426 1.97168 1.10426C1.97392 1.10426 1.97559 1.10426 1.97828 1.10426C2.35697 1.10426 2.7828 1.22493 3.2328 1.48037L19.5853 10.7719Z" fill="url(#paint3_linear_803_14060)"/>
<path d="M2.08129 29.894C2.43323 29.8739 2.82289 29.7528 3.23259 29.5206L19.4796 20.289L3.23259 29.5206C2.82323 29.7532 2.43323 29.8739 2.08129 29.894ZM0.988974 29.5328L0.985505 29.5298C0.986736 29.5307 0.988078 29.5319 0.988974 29.5328ZM0.913303 29.4594L0.90625 29.4524V29.452C0.908937 29.4546 0.911064 29.4571 0.913303 29.4594Z" fill="white"/>
<path d="M19.4766 20.2886L19.582 20.2287L19.4766 20.2886Z" fill="url(#paint4_linear_803_14060)"/>
<path d="M1.97897 29.8965C1.59155 29.8965 1.25304 29.7701 0.989423 29.5322L0.988974 29.5327C0.988078 29.5318 0.986736 29.5306 0.985505 29.5297L0.913303 29.4592C0.911064 29.457 0.908937 29.4544 0.90625 29.4519L0.989423 29.3687C1.25304 29.6066 1.5911 29.7329 1.97853 29.7325C2.35711 29.7325 2.78304 29.6118 3.23259 29.3569L19.481 20.1249L19.5851 20.229L19.4796 20.2889L3.23259 29.5205C2.82289 29.7526 2.43323 29.8738 2.08129 29.8939C2.0467 29.8956 2.01256 29.8965 1.97897 29.8965Z" fill="url(#paint5_linear_803_14060)"/>
<path d="M0.904777 29.4521C0.579031 29.1075 0.386719 28.5723 0.386719 27.8793V27.8788C0.386719 28.5723 0.579031 29.107 0.904777 29.4517V29.4521Z" fill="white"/>
<path d="M0.904778 29.4521C0.579031 29.1075 0.386719 28.5727 0.386719 27.8793V27.7162C0.386719 28.4092 0.579031 28.9444 0.904778 29.2891L0.987951 29.3686L0.904778 29.4521Z" fill="url(#paint6_linear_803_14060)"/>
<path d="M0.90625 29.4521L0.989424 29.3686V29.369L0.90625 29.4521Z" fill="url(#paint7_linear_803_14060)"/>
<path d="M26.1055 16.0791C26.1916 15.8901 26.2349 15.696 26.2349 15.5018C26.2349 15.5015 26.2349 15.501 26.2349 15.501C26.2349 15.6956 26.1916 15.8897 26.1055 16.0791Z" fill="white"/>
<path d="M19.5846 20.229L19.4805 20.1249L25.0617 16.9534C25.7705 16.5508 26.1685 16.0312 26.235 15.5021C26.235 15.6963 26.1916 15.8904 26.1056 16.0794C25.9319 16.4602 25.5839 16.8201 25.0617 17.117L19.5846 20.229Z" fill="url(#paint8_linear_803_14060)"/>
<path d="M26.2328 15.5V15.4996C26.2324 14.914 25.8411 14.3285 25.0596 13.8843L19.5825 10.7722H19.582L19.5825 10.7719L25.0596 13.8838C25.842 14.3281 26.2337 14.9144 26.2328 15.5Z" fill="#282739"/>
<path d="M26.2354 15.5C26.1689 14.9696 25.771 14.4506 25.0621 14.0478L19.4805 10.8768L19.5846 10.7727H19.585L25.0621 13.8847C25.8436 14.329 26.2349 14.9144 26.2354 15.5Z" fill="url(#paint9_linear_803_14060)"/>
<path d="M0.386719 3.1167C0.386719 3.11625 0.386719 3.1158 0.386719 3.11536C0.386719 3.1158 0.386719 3.11625 0.386719 3.1167ZM0.391532 2.9348C0.391532 2.9339 0.391532 2.93301 0.391532 2.93211C0.391532 2.93301 0.391532 2.9339 0.391532 2.9348ZM0.391867 2.92954C0.391867 2.92774 0.391867 2.92607 0.391867 2.92427C0.391867 2.92607 0.391867 2.92774 0.391867 2.92954ZM0.391867 2.92293C0.45668 1.77297 1.08198 1.10872 1.96653 1.1048C1.58302 1.10704 1.24899 1.23297 0.987501 1.4686V1.46816L0.984367 1.47129C0.95683 1.49614 0.930636 1.52245 0.904778 1.54954C0.610934 1.86039 0.425561 2.32607 0.391867 2.92293Z" fill="#282739"/>
<path d="M0.386719 3.28613V3.12259C0.386719 3.12035 0.386719 3.11856 0.386719 3.11643C0.386719 3.11598 0.386719 3.11554 0.386719 3.11509C0.386719 3.05341 0.388398 2.99307 0.391532 2.93453C0.391532 2.93363 0.391532 2.93274 0.391532 2.93184C0.391532 2.93106 0.391531 2.93016 0.391867 2.92927C0.391867 2.92748 0.391867 2.9258 0.391867 2.92401C0.391867 2.92356 0.391867 2.92311 0.391867 2.92266C0.425561 2.3258 0.610935 1.86012 0.904779 1.54927L0.986608 1.63143C0.610935 1.97039 0.386719 2.53568 0.386719 3.28613ZM0.984369 1.47102L0.987503 1.46789C0.986607 1.46923 0.985264 1.47012 0.984369 1.47102Z" fill="url(#paint10_linear_803_14060)"/>
<path d="M19.4805 10.877L3.23259 1.6449C2.78215 1.38957 2.35588 1.26845 1.97629 1.26845C1.58931 1.26845 1.2517 1.39438 0.988079 1.6318L0.90625 1.54964C0.932108 1.52255 0.958302 1.49624 0.985839 1.47139C0.986735 1.4705 0.988078 1.4696 0.988974 1.46871C1.25047 1.23307 1.5845 1.10714 1.968 1.1049C1.9689 1.1049 1.97013 1.1049 1.97147 1.1049C1.97327 1.1049 1.9745 1.1049 1.97629 1.1049C2.35588 1.1049 2.78215 1.22602 3.23259 1.48147L19.5851 10.7725L19.5846 10.7728L19.4805 10.877Z" fill="url(#paint11_linear_803_14060)"/>
<path d="M37.9121 4.26804C37.9252 5.33058 37.7123 6.1876 37.2749 6.83831H40.6703V1.77211H37.9121V4.26804ZM36.3642 9.08887H35.5391V6.83831H36.1958C36.7773 6.33715 37.0616 5.48103 37.0498 4.26804V0.947001H41.5339V6.83831H42.2839V9.08887H41.4584V7.66342H36.3642V9.08887Z" fill="#282739"/>
<path d="M37.9147 4.26792L37.8027 4.26926L37.8036 4.35971C37.8032 5.36505 37.5933 6.16788 37.1844 6.77561L37.0673 6.95012H40.7848V1.66005H37.8027V4.26882V4.26926L37.9147 4.26792H38.0266V1.88393H40.5609V6.72624H37.2775V6.83818L37.3703 6.90031C37.8105 6.24523 38.0275 5.39516 38.0275 4.35971L38.0266 4.26658L37.9147 4.26792H38.0266H37.9147ZM36.3667 9.08874V8.9768H35.6536V6.95012H36.1984H36.2399L36.2714 6.92303C36.8765 6.40094 37.1648 5.53117 37.1648 4.34135L37.1643 4.26703V4.26792V1.05882H41.4245V6.95012H42.1745V8.9768H41.5729V7.66329V7.55135H36.2548V9.08874H36.3667V8.9768V9.08874H36.4787V7.77523H41.349V9.08874V9.20068H42.2865H42.3984V6.72624H41.6484V0.834936H36.9404V4.26837V4.26882L36.9409 4.34135C36.9404 5.49971 36.6597 6.29427 36.1253 6.75288L36.1984 6.83818V6.72624H35.5416H35.4297V9.20068H36.3667H36.4787V9.08874H36.3667Z" fill="#282739"/>
<path d="M44.7282 6.23321C45.2257 6.7365 45.8336 6.98792 46.5529 6.98792C47.2721 6.98792 47.8809 6.7365 48.3771 6.23321C48.8748 5.72993 49.1239 5.08661 49.1239 4.30527C49.1239 3.52392 48.8748 2.8806 48.3771 2.37732C47.8809 1.87404 47.2721 1.62262 46.5529 1.62262C45.8336 1.62262 45.2257 1.87404 44.7282 2.37732C44.2318 2.8806 43.9826 3.52392 43.9826 4.30527C43.9826 5.08661 44.2318 5.72993 44.7282 6.23321ZM49.0156 6.79549C48.3553 7.47452 47.5345 7.81348 46.5529 7.81348C45.5712 7.81348 44.75 7.47452 44.091 6.79549C43.4308 6.11725 43.1016 5.28698 43.1016 4.30527C43.1016 3.32355 43.4308 2.49318 44.091 1.81504C44.75 1.1359 45.5712 0.79661 46.5529 0.79661C47.5288 0.79661 48.3479 1.13769 49.0111 1.81941C49.6736 2.50112 50.005 3.32971 50.005 4.30527C50.005 5.28698 49.6749 6.11725 49.0156 6.79549Z" fill="#282739"/>
<path d="M44.7268 6.23358L44.6472 6.31227C45.1627 6.8357 45.8059 7.10156 46.5516 7.10022C47.2966 7.10156 47.9412 6.8357 48.4553 6.31227C48.9744 5.78839 49.2354 5.11059 49.2346 4.30563C49.2354 3.50067 48.9744 2.82287 48.4553 2.29899C47.9412 1.77556 47.2966 1.5097 46.5516 1.51104C45.8059 1.5097 45.1627 1.77556 44.6472 2.29899C44.1295 2.82287 43.8685 3.50067 43.8694 4.30563C43.8685 5.11059 44.1295 5.78839 44.6472 6.31227L44.7268 6.23358L44.8069 6.15488C44.3319 5.67164 44.0945 5.0638 44.0932 4.30563C44.0945 3.54746 44.3319 2.93962 44.8069 2.45638H44.8064C45.2856 1.97324 45.858 1.73627 46.5516 1.73492C47.2446 1.73627 47.8183 1.97324 48.2962 2.45638L48.2979 2.45817L48.2962 2.45638C48.7723 2.93962 49.0094 3.54746 49.0107 4.30563C49.0094 5.0638 48.7723 5.67164 48.2962 6.15488C47.8183 6.63802 47.2446 6.875 46.5516 6.87634C45.858 6.875 45.2856 6.63802 44.8064 6.15488L44.7268 6.23358ZM49.0143 6.79585L48.9342 6.71806C48.2927 7.3757 47.5074 7.70056 46.5516 7.7019C45.5953 7.70056 44.8103 7.3757 44.1697 6.71806C43.5295 6.05817 43.2134 5.26238 43.2122 4.30563C43.2134 3.34888 43.5295 2.55309 44.1697 1.89321C44.8103 1.23556 45.5953 0.910258 46.5516 0.908915C47.5017 0.910258 48.2849 1.2369 48.9299 1.89802C49.5726 2.56093 49.8905 3.35548 49.8918 4.30563C49.8905 5.26238 49.5735 6.05817 48.9342 6.71806L49.0143 6.79585L49.0946 6.87365C49.7733 6.17671 50.1165 5.3122 50.1156 4.30563C50.1165 3.30477 49.7724 2.44205 49.0903 1.74197C48.4081 1.03921 47.5538 0.683803 46.5516 0.685035C45.5441 0.683803 44.687 1.03753 44.0093 1.73761V1.73716C43.3293 2.43455 42.9874 3.29906 42.9883 4.30563C42.9874 5.3122 43.3293 6.17671 44.0093 6.8741V6.87365C44.687 7.57373 45.5441 7.92668 46.5516 7.92578C47.5586 7.92668 48.4156 7.57373 49.0946 6.87365L49.0143 6.79585Z" fill="#282739"/>
<path d="M54.3488 7.81348C53.3606 7.81348 52.532 7.479 51.8629 6.80948C51.1926 6.14053 50.8594 5.30568 50.8594 4.30527C50.8594 3.30474 51.1926 2.47001 51.8629 1.80105C52.532 1.13154 53.3606 0.79661 54.3488 0.79661C55.3611 0.79661 56.184 1.16265 56.8158 1.89418L56.2146 2.47616C55.759 1.90683 55.1358 1.62262 54.3488 1.62262C53.6164 1.62262 52.9984 1.86967 52.4956 2.36377C51.9919 2.85788 51.7405 3.50512 51.7405 4.30527C51.7405 5.10542 51.9919 5.7531 52.4956 6.24676C52.9984 6.74086 53.6164 6.98792 54.3488 6.98792C55.1555 6.98792 55.843 6.66295 56.4126 6.0128L57.0126 6.61269C56.7057 6.98176 56.3217 7.27426 55.8582 7.48941C55.396 7.70546 54.8919 7.81348 54.3488 7.81348Z" fill="#282739"/>
<path d="M54.3474 7.81384V7.7019C53.3842 7.70056 52.5905 7.37918 51.9407 6.73071C51.2914 6.08134 50.9709 5.28119 50.97 4.30563C50.9709 3.33007 51.2914 2.52992 51.9407 1.88056C52.5905 1.23164 53.3842 0.910261 54.3474 0.908917C55.3331 0.910708 56.1167 1.25963 56.7296 1.96754L56.8145 1.89455L56.7367 1.81407L56.1355 2.39649L56.2133 2.47653L56.3007 2.40657C55.8258 1.81104 55.1608 1.50936 54.3474 1.51104C53.5896 1.51015 52.9377 1.77041 52.416 2.2841C51.8891 2.7997 51.6258 3.48265 51.6272 4.30563C51.6258 5.12862 51.8891 5.81246 52.416 6.32716C52.9377 6.84085 53.5896 7.10112 54.3474 7.10022C55.1848 7.10156 55.9102 6.7578 56.4952 6.08705L56.4113 6.01317L56.3321 6.09231L56.9321 6.6922L57.0113 6.61306L56.9251 6.54186C56.6287 6.89772 56.2596 7.17936 55.8096 7.38835C55.3623 7.59735 54.8761 7.70145 54.3474 7.7019V7.81384V7.92578C54.9054 7.92578 55.4267 7.81473 55.9041 7.5913C56.3816 7.37 56.7796 7.06697 57.0974 6.68481L57.1625 6.60656L56.4905 5.93403L56.4057 5.84918L56.327 5.93929C55.7733 6.5694 55.1236 6.875 54.3474 6.87634C53.64 6.875 53.0571 6.64149 52.573 6.16709H52.5726C52.0916 5.69481 51.852 5.08306 51.8511 4.30563C51.852 3.52821 52.0916 2.91735 52.5726 2.44418H52.573C53.0571 1.96977 53.64 1.73627 54.3474 1.73492C55.1079 1.73672 55.6889 2.00347 56.1258 2.54649L56.2027 2.64276L56.8923 1.97504L56.9684 1.90149L56.8993 1.82156C56.2491 1.06597 55.3864 0.683805 54.3474 0.685037C53.3338 0.684142 52.4702 1.03272 51.7824 1.72227C51.0911 2.41048 50.7448 3.28071 50.7461 4.30563C50.7448 5.33056 51.0911 6.20078 51.7824 6.88944C52.4702 7.57854 53.3338 7.92668 54.3474 7.92578V7.81384Z" fill="#282739"/>
<path d="M60.505 7.66357H59.6415V1.77227H57.7656V0.947153H62.3809V1.77227H60.505V7.66357Z" fill="#282739"/>
<path d="M60.5037 7.66345V7.55151H59.7521V1.6602H57.8762V1.05897H62.2676V1.6602H60.3917V7.66345H60.5037V7.55151V7.66345H60.6156V1.88409H62.4915V0.947032V0.835093H57.6523V1.77214V1.88409H59.5282V7.77539H60.5037H60.6156V7.66345H60.5037Z" fill="#282739"/>
<path d="M64.2558 5.03645H66.4876L65.3901 2.00712H65.3529L64.2558 5.03645ZM62.3516 7.66357L64.8847 0.947153H65.8593L68.392 7.66357H67.4357L66.788 5.8432H63.9651L63.3083 7.66357H62.3516Z" fill="#282739"/>
<path d="M64.2536 5.03632V5.14826H66.6451L65.4661 1.89505H65.3507H65.272L64.0941 5.14826H64.2536V5.03632L64.359 5.07483L65.4562 2.04505L65.3507 2.00699V2.11894H65.3879V2.00699L65.2825 2.04505L66.3258 4.92438H64.2536V5.03632L64.359 5.07483L64.2536 5.03632ZM62.3494 7.66345L62.4543 7.70285L64.9598 1.05897H65.7792L68.2279 7.55151H67.5122L66.8649 5.73114H63.8842L63.2273 7.55151H62.3494V7.66345L62.4543 7.70285L62.3494 7.66345V7.77539H63.3061H63.3848L64.0416 5.95502H66.7071L67.3543 7.77539H68.3898H68.5515L65.9345 0.835093H64.8825H64.805L62.1875 7.77539H62.3494V7.66345Z" fill="#282739"/>
<path d="M69.3672 7.66357V0.947153H74.2265V7.66357H73.363V1.77227H70.2299V7.66357H69.3672Z" fill="#282739"/>
<path d="M69.3658 7.66345H69.4778V1.05897H74.1132V7.55151H73.4736V1.6602H70.1166V7.55151H69.3658V7.66345H69.4778H69.3658V7.77539H70.2286H70.3405V1.88409H73.2497V7.77539H74.2252H74.3371V0.835093H69.2539V7.77539H69.3658V7.66345Z" fill="#282739"/>
<path d="M75.7656 7.66357V0.947153H76.6285V3.82659H79.9867V0.947153H80.8498V7.66357H79.9867V4.63335H76.6285V7.66357H75.7656Z" fill="#282739"/>
<path d="M75.7643 7.66345H75.8762V1.05897H76.5152L76.5147 3.93841H80.0973V1.05897H80.7365V7.55151H80.0968L80.0973 4.52129H76.5147V7.55151H75.7643V7.66345H75.8762H75.7643V7.77539H76.6271H76.7391V4.74517H79.873V7.77539H80.8484H80.9603V0.835093H79.9853H79.873V3.71453H76.7386L76.7391 0.835093H75.7643H75.6523V7.77539H75.7643V7.66345Z" fill="#282739"/>
<path d="M83.5914 6.23321C84.0891 6.7365 84.6964 6.98792 85.4157 6.98792C86.1355 6.98792 86.7441 6.7365 87.2405 6.23321C87.7376 5.72993 87.9873 5.08661 87.9873 4.30527C87.9873 3.52392 87.7376 2.8806 87.2405 2.37732C86.7441 1.87404 86.1355 1.62262 85.4157 1.62262C84.6964 1.62262 84.0891 1.87404 83.5914 2.37732C83.0952 2.8806 82.8459 3.52392 82.8459 4.30527C82.8459 5.08661 83.0952 5.72993 83.5914 6.23321ZM87.8789 6.79549C87.2187 7.47452 86.3979 7.81348 85.4157 7.81348C84.4346 7.81348 83.6134 7.47452 82.9544 6.79549C82.2942 6.11725 81.9648 5.28698 81.9648 4.30527C81.9648 3.32355 82.2942 2.49318 82.9544 1.81504C83.6134 1.1359 84.4346 0.79661 85.4157 0.79661C86.3922 0.79661 87.2107 1.13769 87.8745 1.81941C88.537 2.50112 88.8684 3.32971 88.8684 4.30527C88.8684 5.28698 88.5383 6.11725 87.8789 6.79549Z" fill="#282739"/>
<path d="M83.5901 6.23358L83.5105 6.31227C84.0261 6.8357 84.6693 7.10156 85.4144 7.10022C86.1599 7.10156 86.804 6.8357 87.3187 6.31227C87.8378 5.78839 88.0988 5.11059 88.0979 4.30563C88.0988 3.50067 87.8378 2.82287 87.3187 2.29899C86.804 1.77556 86.1599 1.5097 85.4144 1.51104C84.6693 1.5097 84.0261 1.77556 83.5105 2.29899C82.9928 2.82287 82.7318 3.50067 82.7326 4.30563C82.7318 5.11059 82.9928 5.78839 83.5105 6.31227L83.5901 6.23358L83.6697 6.15488C83.1948 5.67164 82.9574 5.0638 82.9565 4.30563C82.9574 3.54746 83.1948 2.93962 83.6697 2.45638C84.149 1.97324 84.7214 1.73627 85.4144 1.73492C86.108 1.73627 86.6817 1.97324 87.1595 2.45638L87.1626 2.45996L87.1595 2.45638C87.6353 2.93962 87.8727 3.54746 87.8741 4.30563C87.8727 5.0638 87.6353 5.67164 87.1595 6.15488C86.6817 6.63802 86.108 6.875 85.4144 6.87634C84.7214 6.875 84.149 6.63802 83.6697 6.15488L83.5901 6.23358ZM87.8775 6.79585L87.797 6.71806C87.1556 7.3757 86.3707 7.70056 85.4144 7.7019C84.4585 7.70056 83.6736 7.3757 83.0331 6.71806L83.03 6.71458L83.0331 6.71806C82.3925 6.05817 82.0763 5.26238 82.0754 4.30563C82.0763 3.34888 82.3925 2.55309 83.0331 1.89321C83.6736 1.23556 84.4585 0.910258 85.4144 0.908915C86.3647 0.910258 87.1478 1.2369 87.7931 1.89802C88.4359 2.56093 88.7538 3.35548 88.7551 4.30563C88.7538 5.26238 88.4368 6.05817 87.797 6.71806L87.8775 6.79585L87.958 6.87365C88.6366 6.17671 88.9799 5.3122 88.979 4.30563C88.9799 3.30477 88.6354 2.44205 87.9537 1.74197C87.2715 1.03921 86.4166 0.683803 85.4144 0.685035C84.4074 0.683803 83.5504 1.03753 82.8726 1.73761V1.73716C82.1926 2.43455 81.8507 3.29906 81.8516 4.30563C81.8507 5.3122 82.1926 6.17671 82.8726 6.8741V6.87365C83.5504 7.57373 84.4074 7.92668 85.4144 7.92578C86.4219 7.92668 87.2789 7.57373 87.958 6.87365L87.8775 6.79585Z" fill="#282739"/>
<path d="M92.3984 7.66357V0.947153H93.2604V3.82659H96.6186V0.947153H97.4828V7.66357H96.6186V4.63335H93.2604V7.66357H92.3984Z" fill="#282739"/>
<path d="M92.3971 7.66345H92.509V1.05897H93.1471V3.93841H96.7292V1.05897H97.3695V7.55151H96.7292V4.52129H93.1471V7.55151H92.3971V7.66345H92.509H92.3971V7.77539H93.259H93.371V4.74517H96.5053V7.77539H97.4814H97.5934V0.835093H96.6173H96.5053V3.71453H93.371V0.835093H92.3971H92.2852V7.77539H92.3971V7.66345Z" fill="#282739"/>
<path d="M100.361 5.03645H102.593L101.496 2.00712H101.459L100.361 5.03645ZM98.457 7.66357L100.99 0.947153H101.965L104.498 7.66357H103.541L102.894 5.8432H100.07L99.4141 7.66357H98.457Z" fill="#282739"/>
<path d="M100.359 5.03632V5.14826H102.752L101.573 1.89505H101.458H101.379L100.2 5.14826H100.359V5.03632L100.465 5.07483L101.563 2.04505L101.458 2.00699V2.11894H101.494V2.00699L101.389 2.04505L102.433 4.92438H100.359V5.03632L100.465 5.07483L100.359 5.03632ZM98.4553 7.66345L98.5605 7.70285L101.066 1.05897H101.886L104.334 7.55151H103.619L102.971 5.73114H99.99L99.3329 7.55151H98.4553V7.66345L98.5605 7.70285L98.4553 7.66345V7.77539H99.4124H99.4907L100.148 5.95502H102.813L103.46 7.77539H104.497H104.658L102.041 0.835093H100.988H100.911L98.293 7.77539H98.4553V7.66345Z" fill="#282739"/>
<defs>
<linearGradient id="paint0_linear_803_14060" x1="13.626" y1="2.86093" x2="-5.16036" y2="21.6473" gradientUnits="userSpaceOnUse">
<stop stop-color="#00A0FF"/>
<stop offset="0.00657445" stop-color="#00A1FF"/>
<stop offset="0.2601" stop-color="#00BEFF"/>
<stop offset="0.5122" stop-color="#00D2FF"/>
<stop offset="0.7604" stop-color="#00DFFF"/>
<stop offset="1" stop-color="#00E3FF"/>
</linearGradient>
<linearGradient id="paint1_linear_803_14060" x1="27.0973" y1="15.5008" x2="0.011062" y2="15.5008" gradientUnits="userSpaceOnUse">
<stop stop-color="#FFE000"/>
<stop offset="0.4087" stop-color="#FFBD00"/>
<stop offset="0.7754" stop-color="#FFA500"/>
<stop offset="1" stop-color="#FF9C00"/>
</linearGradient>
<linearGradient id="paint2_linear_803_14060" x1="17.013" y1="18.0698" x2="-8.46273" y2="43.5455" gradientUnits="userSpaceOnUse">
<stop stop-color="#FF3A44"/>
<stop offset="1" stop-color="#C31162"/>
</linearGradient>
<linearGradient id="paint3_linear_803_14060" x1="-2.60646" y1="-6.69171" x2="8.76947" y2="4.68422" gradientUnits="userSpaceOnUse">
<stop stop-color="#32A071"/>
<stop offset="0.0685" stop-color="#2DA771"/>
<stop offset="0.4762" stop-color="#15CF74"/>
<stop offset="0.8009" stop-color="#06E775"/>
<stop offset="1" stop-color="#00F076"/>
</linearGradient>
<linearGradient id="paint4_linear_803_14060" x1="27.0961" y1="15.5011" x2="0.00945489" y2="15.5011" gradientUnits="userSpaceOnUse">
<stop stop-color="#CCB300"/>
<stop offset="0.4087" stop-color="#CC9700"/>
<stop offset="0.7754" stop-color="#CC8400"/>
<stop offset="1" stop-color="#CC7D00"/>
</linearGradient>
<linearGradient id="paint5_linear_803_14060" x1="17.0161" y1="18.0698" x2="-8.45958" y2="43.5455" gradientUnits="userSpaceOnUse">
<stop stop-color="#CC2E36"/>
<stop offset="1" stop-color="#9C0E4E"/>
</linearGradient>
<linearGradient id="paint6_linear_803_14060" x1="13.626" y1="2.8614" x2="-5.16034" y2="21.6478" gradientUnits="userSpaceOnUse">
<stop stop-color="#008DE0"/>
<stop offset="0.00657445" stop-color="#008DE0"/>
<stop offset="0.2601" stop-color="#00A7E0"/>
<stop offset="0.5122" stop-color="#00B8E0"/>
<stop offset="0.7604" stop-color="#00C4E0"/>
<stop offset="1" stop-color="#00C7E0"/>
</linearGradient>
<linearGradient id="paint7_linear_803_14060" x1="17.0166" y1="18.0704" x2="-8.45841" y2="43.5468" gradientUnits="userSpaceOnUse">
<stop stop-color="#E0333C"/>
<stop offset="1" stop-color="#AB0F56"/>
</linearGradient>
<linearGradient id="paint8_linear_803_14060" x1="27.0986" y1="15.5011" x2="0.0123486" y2="15.5011" gradientUnits="userSpaceOnUse">
<stop stop-color="#E0C500"/>
<stop offset="0.4087" stop-color="#E0A600"/>
<stop offset="0.7754" stop-color="#E09100"/>
<stop offset="1" stop-color="#E08900"/>
</linearGradient>
<linearGradient id="paint9_linear_803_14060" x1="27.099" y1="15.5011" x2="0.0128319" y2="15.5011" gradientUnits="userSpaceOnUse">
<stop stop-color="#FFE840"/>
<stop offset="0.4087" stop-color="#FFCE40"/>
<stop offset="0.7754" stop-color="#FFBC40"/>
<stop offset="1" stop-color="#FFB540"/>
</linearGradient>
<linearGradient id="paint10_linear_803_14060" x1="13.626" y1="2.86098" x2="-5.16036" y2="21.6474" gradientUnits="userSpaceOnUse">
<stop stop-color="#40B8FF"/>
<stop offset="0.00657445" stop-color="#40B9FF"/>
<stop offset="0.2601" stop-color="#40CEFF"/>
<stop offset="0.5122" stop-color="#40DDFF"/>
<stop offset="0.7604" stop-color="#40E7FF"/>
<stop offset="1" stop-color="#40EAFF"/>
</linearGradient>
<linearGradient id="paint11_linear_803_14060" x1="-2.60666" y1="-6.69107" x2="8.76927" y2="4.68486" gradientUnits="userSpaceOnUse">
<stop stop-color="#65B895"/>
<stop offset="0.0685" stop-color="#62BD95"/>
<stop offset="0.4762" stop-color="#50DB97"/>
<stop offset="0.8009" stop-color="#44ED98"/>
<stop offset="1" stop-color="#40F498"/>
</linearGradient>
</defs>
</svg>
