<svg width="20" height="12" viewBox="0 0 20 12" fill="none" xmlns="http://www.w3.org/2000/svg">
<mask id="path-1-inside-1_777:1842" fill="white">
<path d="M19.4141 7.26381H18.7766L16.7349 2.32541C17.0208 2.2865 17.2413 2.04205 17.2413 1.74549C17.2413 1.42189 16.979 1.15955 16.6554 1.15955H11.6177C11.3769 0.490762 10.7363 0.0112305 9.98559 0.0112305C9.23488 0.0112305 8.59422 0.490801 8.3534 1.15955H3.34465C3.02105 1.15955 2.75871 1.42189 2.75871 1.74549C2.75871 2.04205 2.97926 2.2865 3.26512 2.32541L1.22344 7.26381H0.585938C0.262344 7.26381 0 7.52615 0 7.84975C0 10.1319 1.85668 11.9886 4.13883 11.9886C6.42098 11.9886 8.27766 10.1319 8.27766 7.84975C8.27766 7.52615 8.01531 7.26381 7.69172 7.26381H7.05418L5.01504 2.33143H8.3534C8.59422 3.00021 9.23484 3.47975 9.98559 3.47975C10.7363 3.47975 11.3769 3.00021 11.6177 2.33143H14.985L12.9459 7.26381H12.3083C11.9847 7.26381 11.7224 7.52615 11.7224 7.84975C11.7224 10.1319 13.5791 11.9886 15.8612 11.9886C18.1434 11.9886 20 10.1319 20 7.84975C20 7.52615 19.7377 7.26381 19.4141 7.26381ZM4.13883 10.8167C2.70332 10.8167 1.5027 9.79205 1.22996 8.43568H7.0477C6.77496 9.79205 5.57434 10.8167 4.13883 10.8167ZM5.78613 7.26381H2.49152L4.13883 3.27928L5.78613 7.26381ZM9.98555 2.30787C9.67543 2.30787 9.42316 2.05561 9.42316 1.74549C9.42316 1.43537 9.67543 1.18311 9.98555 1.18311C10.2956 1.18311 10.5479 1.43537 10.5479 1.74549C10.5479 2.05561 10.2957 2.30787 9.98555 2.30787ZM15.8612 3.27928L17.5085 7.26381H14.2139L15.8612 3.27928ZM15.8612 10.8167C14.4257 10.8167 13.225 9.79205 12.9523 8.43568H18.77C18.4973 9.79205 17.2966 10.8167 15.8612 10.8167Z"/>
</mask>
<path d="M19.4141 7.26381H18.7766L16.7349 2.32541C17.0208 2.2865 17.2413 2.04205 17.2413 1.74549C17.2413 1.42189 16.979 1.15955 16.6554 1.15955H11.6177C11.3769 0.490762 10.7363 0.0112305 9.98559 0.0112305C9.23488 0.0112305 8.59422 0.490801 8.3534 1.15955H3.34465C3.02105 1.15955 2.75871 1.42189 2.75871 1.74549C2.75871 2.04205 2.97926 2.2865 3.26512 2.32541L1.22344 7.26381H0.585938C0.262344 7.26381 0 7.52615 0 7.84975C0 10.1319 1.85668 11.9886 4.13883 11.9886C6.42098 11.9886 8.27766 10.1319 8.27766 7.84975C8.27766 7.52615 8.01531 7.26381 7.69172 7.26381H7.05418L5.01504 2.33143H8.3534C8.59422 3.00021 9.23484 3.47975 9.98559 3.47975C10.7363 3.47975 11.3769 3.00021 11.6177 2.33143H14.985L12.9459 7.26381H12.3083C11.9847 7.26381 11.7224 7.52615 11.7224 7.84975C11.7224 10.1319 13.5791 11.9886 15.8612 11.9886C18.1434 11.9886 20 10.1319 20 7.84975C20 7.52615 19.7377 7.26381 19.4141 7.26381ZM4.13883 10.8167C2.70332 10.8167 1.5027 9.79205 1.22996 8.43568H7.0477C6.77496 9.79205 5.57434 10.8167 4.13883 10.8167ZM5.78613 7.26381H2.49152L4.13883 3.27928L5.78613 7.26381ZM9.98555 2.30787C9.67543 2.30787 9.42316 2.05561 9.42316 1.74549C9.42316 1.43537 9.67543 1.18311 9.98555 1.18311C10.2956 1.18311 10.5479 1.43537 10.5479 1.74549C10.5479 2.05561 10.2957 2.30787 9.98555 2.30787ZM15.8612 3.27928L17.5085 7.26381H14.2139L15.8612 3.27928ZM15.8612 10.8167C14.4257 10.8167 13.225 9.79205 12.9523 8.43568H18.77C18.4973 9.79205 17.2966 10.8167 15.8612 10.8167Z" fill="#282739"/>
</svg>
