<svg width="25" height="23" viewBox="0 0 25 23" fill="none" xmlns="http://www.w3.org/2000/svg">
<path d="M23.9404 8.0679H18.7539L15.8446 1.40613C15.6827 1.03548 15.251 0.866091 14.8802 1.02805C14.5095 1.18992 14.3403 1.62171 14.5022 1.99241L17.1555 8.06795H7.84456L10.4979 1.99241C10.6597 1.62171 10.4905 1.18997 10.1198 1.02805C9.74915 0.866091 9.31731 1.03538 9.15549 1.40613L6.24612 8.0679H1.05964C0.381177 8.0679 -0.122338 8.68211 0.0260991 9.32864L2.7573 21.2246C2.86575 21.697 3.29514 22.0327 3.79085 22.0327H21.2092C21.7049 22.0327 22.1343 21.697 22.2428 21.2246L24.974 9.32864C25.1224 8.68216 24.6188 8.0679 23.9404 8.0679ZM6.38391 10.3142C6.28606 10.3142 6.1866 10.2945 6.09114 10.2528C5.72044 10.0909 5.55115 9.65916 5.71306 9.28841L6.26326 8.02854H7.86169L7.05544 9.87464C6.93528 10.15 6.66624 10.3142 6.38391 10.3142ZM8.83792 18.1265C8.83792 18.531 8.50999 18.8589 8.10549 18.8589C7.701 18.8589 7.37307 18.531 7.37307 18.1265V12.7554C7.37307 12.3509 7.701 12.023 8.10549 12.023C8.50999 12.023 8.83792 12.3509 8.83792 12.7554V18.1265ZM13.2324 18.1265C13.2324 18.531 12.9045 18.8589 12.5 18.8589C12.0955 18.8589 11.7676 18.531 11.7676 18.1265V12.7554C11.7676 12.3509 12.0955 12.023 12.5 12.023C12.9045 12.023 13.2324 12.3509 13.2324 12.7554V18.1265ZM17.627 18.1265C17.627 18.531 17.299 18.8589 16.8946 18.8589C16.4901 18.8589 16.1621 18.531 16.1621 18.1265V12.7554C16.1621 12.3509 16.4901 12.023 16.8946 12.023C17.299 12.023 17.627 12.3509 17.627 12.7554V18.1265ZM18.9089 10.2528C18.8135 10.2945 18.714 10.3142 18.6161 10.3142C18.3338 10.3142 18.0648 10.15 17.9446 9.87469L17.1383 8.02859H18.7367L19.2869 9.28846C19.4489 9.65916 19.2796 10.0909 18.9089 10.2528Z" fill="#6F73EE"/>
</svg>
