<svg width="32" height="32" viewBox="0 0 32 32" fill="none" xmlns="http://www.w3.org/2000/svg">
<path d="M8.125 15.9766C8.125 16.1489 8.15895 16.3196 8.22491 16.4788C8.29087 16.6381 8.38755 16.7828 8.50942 16.9046C8.6313 17.0265 8.77599 17.1232 8.93523 17.1892C9.09447 17.2551 9.26514 17.2891 9.4375 17.2891C9.60986 17.2891 9.78053 17.2551 9.93977 17.1892C10.099 17.1232 10.2437 17.0265 10.3656 16.9046C10.4875 16.7828 10.5841 16.6381 10.6501 16.4788C10.7161 16.3196 10.75 16.1489 10.75 15.9766C10.75 15.8042 10.7161 15.6335 10.6501 15.4743C10.5841 15.3151 10.4875 15.1704 10.3656 15.0485C10.2437 14.9266 10.099 14.8299 9.93977 14.764C9.78053 14.698 9.60986 14.6641 9.4375 14.6641C9.26514 14.6641 9.09447 14.698 8.93523 14.764C8.77599 14.8299 8.6313 14.9266 8.50942 15.0485C8.38755 15.1704 8.29087 15.3151 8.22491 15.4743C8.15895 15.6335 8.125 15.8042 8.125 15.9766ZM14.6875 15.9766C14.6875 16.3247 14.8258 16.6585 15.0719 16.9046C15.3181 17.1508 15.6519 17.2891 16 17.2891C16.3481 17.2891 16.6819 17.1508 16.9281 16.9046C17.1742 16.6585 17.3125 16.3247 17.3125 15.9766C17.3125 15.6285 17.1742 15.2946 16.9281 15.0485C16.6819 14.8023 16.3481 14.6641 16 14.6641C15.6519 14.6641 15.3181 14.8023 15.0719 15.0485C14.8258 15.2946 14.6875 15.6285 14.6875 15.9766ZM21.25 15.9766C21.25 16.3247 21.3883 16.6585 21.6344 16.9046C21.8806 17.1508 22.2144 17.2891 22.5625 17.2891C22.9106 17.2891 23.2444 17.1508 23.4906 16.9046C23.7367 16.6585 23.875 16.3247 23.875 15.9766C23.875 15.6285 23.7367 15.2946 23.4906 15.0485C23.2444 14.8023 22.9106 14.6641 22.5625 14.6641C22.2144 14.6641 21.8806 14.8023 21.6344 15.0485C21.3883 15.2946 21.25 15.6285 21.25 15.9766Z" fill="#5D6C7B"/>
</svg>
